<svg xmlns="http://www.w3.org/2000/svg" width="1567" height="805" viewBox="0 0 1567 805">
  <g fill="none" fill-rule="evenodd">
    <path fill="#635945" d="M88.5653693,281.822809 C124.670415,281.822809 173.736247,270.156941 174.044837,221.65149 C174.044837,184.56631 146.395161,172.433808 114.00554,164.977476 L111.439035,164.398164 C110.580529,164.208052 109.719158,164.020809 108.85534,163.836065 L106.256959,163.288961 L106.256959,163.288961 L103.646399,162.754636 C101.466553,162.314074 99.2766297,161.884513 97.0831517,161.460181 L94.4496897,160.953121 C92.6934676,160.616261 90.9366409,160.28127 89.1825496,159.945189 C52.7689134,153.191266 23.1442603,146.744339 23.1442603,119.421648 C23.1442603,85.0380372 63.2609781,75.8281415 88.5653693,75.8281415 C112.94399,76.135138 138.248381,79.8190963 153.986478,104.992811 L167.564444,97.0109016 C146.271725,65.3902597 119.424383,60.4783153 88.5653693,60.4783153 C53.0775036,60.4783153 5.55462247,74.6001554 6.48039288,120.035641 C6.48039288,154.298523 36.739407,164.892829 70.4787657,172.097058 L73.1143815,172.65192 C77.5172502,173.56644 81.9670881,174.432666 86.4052383,175.295015 C87.3036653,175.466001 88.2022901,175.637183 89.1005218,175.808965 L91.7934469,176.326517 C125.425499,182.828506 157.673935,190.741992 157.38097,221.344494 C157.38097,259.412063 115.104121,266.77998 88.5653693,266.77998 C62.0266175,266.77998 28.0817025,253.886126 14.8123266,227.791421 L0,235.159338 C16.6638674,268.007966 54.9290444,281.822809 88.5653693,281.822809 Z M321.139469,38.067569 L321.139469,36.8395829 L297.995209,0 L277.93685,0 L277.93685,0.306996524 L306.327143,38.067569 L321.139469,38.067569 Z M310.647405,282.129806 C383.166087,282.129806 419.271133,227.791421 419.581668,171.304061 C419.888313,113.281717 383.474677,60.1713187 310.647405,60.1713187 C237.820132,60.1713187 201.715086,112.974721 201.715086,170.690067 C201.715086,227.484424 238.128722,282.129806 310.647405,282.129806 Z M310.647405,266.77998 C249.237967,266.77998 218.378954,219.502515 218.070363,170.997064 C217.761773,120.342637 248.620787,75.521145 310.647405,75.521145 C372.674022,75.521145 403.533036,121.263627 403.533036,170.997064 C403.533036,219.502515 372.365432,266.77998 310.647405,266.77998 Z M600.92786,278.445847 L600.92786,262.789025 L479.343346,262.789025 L479.343346,63.5482805 L462.679479,63.5482805 L462.679479,278.445847 L600.92786,278.445847 Z M105.537827,539.085897 C142.568643,539.085897 183.919722,527.113032 183.919722,482.905533 C183.919722,458.038814 168.490215,436.242061 141.334283,428.874144 C162.935592,422.120221 176.513558,404.928415 176.513558,382.824666 C176.513558,341.994128 141.951463,324.18833 105.537827,324.18833 L16.9724575,324.18833 L16.9724575,324.18833 L16.9724575,539.085897 L105.537827,539.085897 L105.537827,539.085897 Z M107.697958,421.506228 L33.6363249,421.506228 L33.6363249,338.31017 L105.537827,338.31017 C132.385169,338.31017 160.775461,351.51102 160.775461,382.824666 C160.775461,413.524318 133.619529,421.506228 107.697958,421.506228 Z M105.537827,523.122077 L33.6363249,523.122077 L33.6363249,437.16305 L107.697958,437.16305 L107.697958,437.16305 C136.705431,437.16305 167.255854,449.135915 167.564444,482.598536 C167.564444,516.67515 132.693759,523.122077 105.537827,523.122077 Z M380.080185,539.085897 L380.080185,523.122077 L243.683345,523.122077 L243.683345,438.391037 L370.205301,438.391037 L370.205301,423.348207 L243.683345,423.348207 L243.683345,339.845152 L376.377104,339.845152 L376.377104,324.18833 L227.328068,324.18833 L227.328068,539.085897 L380.080185,539.085897 Z M440.152399,539.085897 L440.152399,361.641906 L585.806943,539.085897 L592.287336,539.085897 L592.287336,324.18833 L575.932059,324.18833 L575.932059,501.939317 L430.586104,324.18833 L423.488531,324.18833 L423.488531,539.085897 L440.152399,539.085897 Z M33.6363249,799.725946 L33.6363249,608.774107 L116.955662,734.642682 L122.510284,734.642682 L205.212441,608.774107 L205.212441,799.725946 L221.567718,799.725946 L221.567718,584.828379 L201.200769,584.828379 L119.424383,710.08296 L36.7222263,584.828379 L16.9724575,584.828379 L16.9724575,584.828379 L16.9724575,799.725946 L33.6363249,799.725946 Z M373.599792,803.409904 C446.118475,803.409904 482.223521,749.071519 482.534056,692.584159 C482.840701,634.561816 446.427065,581.451417 373.599792,581.451417 C300.77252,581.451417 264.667474,634.254819 264.667474,691.970166 C264.667474,748.764523 301.08111,803.409904 373.599792,803.409904 Z M373.599792,788.060078 C312.190355,788.060078 281.331342,740.782613 281.022751,692.277162 C280.714161,641.622736 311.573175,596.801243 373.599792,596.801243 C435.62641,596.801243 466.485424,642.543725 466.485424,692.277162 C466.485424,740.782613 435.31782,788.060078 373.599792,788.060078 Z M663.880248,799.725946 L663.880248,784.069123 L542.295734,784.069123 L542.295734,584.828379 L525.631867,584.828379 L525.631867,799.725946 L663.880248,799.725946 Z M833.81055,799.725946 L833.81055,784.069123 L712.226036,784.069123 L712.226036,584.828379 L695.562169,584.828379 L695.562169,799.725946 L833.81055,799.725946 Z" transform="translate(732.067 .96)"/>
    <path fill="#99B67F" fill-rule="nonzero" d="M272.106933,11.1470588 C377.448555,11.1470588 465.374306,93.198413 477.289934,200.391696 C497.568188,194.86697 519.106822,192.104618 541.890672,192.109001 L541.870472,192.108545 L541.870472,192.108545 L541.890672,192.109001 C541.916406,192.109001 541.942095,192.109234 541.967737,192.109697 C542.006578,192.110059 542.045921,192.111374 542.085304,192.113249 C542.130905,192.115537 542.176369,192.118357 542.221657,192.121896 C542.242001,192.123608 542.262398,192.125398 542.282801,192.127339 C542.339545,192.132385 542.396235,192.13881 542.452611,192.146355 C542.463045,192.148425 542.473378,192.149874 542.483711,192.151364 C544.230096,192.39753 545.669343,193.7206 546.039278,195.496773 C564.802101,285.582954 545.636415,357.846681 488.502428,411.708749 C450.109312,447.903188 406.474407,472.039584 357.66195,484.096753 C358.925795,484.197079 360.171142,484.307069 361.399153,484.424488 L361.399153,484.424488 L365.412069,484.841574 C377.259822,486.174742 387.38893,488.245265 395.807558,491.058282 C414.395119,497.269166 436.043033,510.779957 460.835351,531.584636 L460.835351,531.584636 L464.996533,535.119618 C467.091696,536.920876 469.208728,538.772783 471.347677,540.675337 L471.347677,540.675337 L475.654812,544.547971 L480.020479,548.555656 L484.444765,552.698384 C485.929307,554.101801 487.423632,555.527723 488.927757,556.976151 C489.37527,557.407094 489.708342,557.912954 489.926157,558.455387 C491.18207,560.4058 490.651198,563.015018 488.723049,564.310969 C444.459028,594.061789 398.794661,599.022328 352.236297,579.078862 C318.470639,564.615205 294.652177,545.073181 280.959936,520.500426 L281.035199,537.190949 C286.66523,583.63111 306.694952,623.039661 341.206365,655.574693 C396.650662,707.843835 458.856752,741.303836 527.886466,756.01452 C530.176873,756.50262 531.639917,758.76441 531.154265,761.066367 C530.668613,763.368325 528.418173,764.838747 526.127765,764.350646 C455.552978,749.310697 391.958372,715.103828 335.405778,661.789859 C309.616255,637.477236 291.543628,609.388409 281.218155,577.581714 L281.315879,598.856169 C284.577436,624.745454 292.615656,641.679836 308.741029,659.756073 L309.262511,660.33792 L313.711549,665.227917 L314.753186,666.322422 L316.986853,668.58484 L320.823568,672.317965 L344.963021,695.159114 L348.376073,698.432595 L353.324969,703.252319 L356.510259,706.405271 L359.604223,709.510172 L362.606733,712.567115 L365.517662,715.576193 L368.336884,718.537496 L371.06427,721.451118 L373.699694,724.317151 L376.243029,727.135687 L376.864459,727.83291 L376.864459,727.83291 L377.480123,728.527172 L379.885086,731.274635 L382.197643,733.974832 L384.417666,736.627854 L386.545028,739.233794 L388.579602,741.792745 L390.521262,744.304798 L392.369879,746.770045 L394.125328,749.188579 L394.549617,749.785925 L394.549617,749.785925 L394.968074,750.380358 L396.583531,752.728995 C397.171806,753.601013 397.740362,754.463225 398.289168,755.315655 L398.831389,756.164825 L400.212892,758.397428 C402.72512,762.556416 404.738791,766.46958 406.250092,770.139687 L406.527572,770.824984 L407.249778,772.73576 C411.299058,784.063502 410.234891,792.92849 403.933794,799.420361 C402.298875,801.104779 399.614872,801.138222 397.938906,799.495059 C396.262939,797.851895 396.229664,795.154357 397.864583,793.469938 C401.105686,790.130706 401.92934,785.237573 400.282906,778.828747 L400.169484,778.399247 L399.709326,776.843454 C399.439433,775.998732 399.130358,775.130079 398.781995,774.237572 L398.513356,773.56372 L397.777237,771.840002 C397.092777,770.30734 396.302323,768.71065 395.405412,767.050269 L395.014503,766.334778 L393.908287,764.388719 C393.652144,763.950112 393.389119,763.507408 393.119204,763.060613 L392.709163,762.387353 L391.416977,760.330792 C391.119473,759.867654 390.815065,759.400436 390.503743,758.929143 L390.031576,758.219148 L388.552807,756.052531 L386.980514,753.831054 L385.314546,751.554827 L383.554749,749.223963 L381.700968,746.838573 L379.753051,744.398768 L377.710844,741.904659 L375.574193,739.356359 L373.342944,736.753978 L371.016945,734.097628 L368.596042,731.387421 L366.080081,728.623467 L363.468908,725.80588 L362.80122,725.093115 L362.80122,725.093115 L362.127569,724.377007 L359.373291,721.479177 L356.523418,718.52799 L353.577796,715.523559 L350.536271,712.465995 L347.39869,709.35541 L344.1649,706.191914 L339.133486,701.347708 L316.540342,679.98612 L312.21198,675.816098 L309.193829,672.803661 L307.564713,671.101371 L306.265512,669.698125 L301.620193,664.532415 C292.764377,654.461557 286.199354,644.573531 281.472122,633.460174 L281.49306,638.237568 C287.292792,683.195343 306.685112,721.516087 339.743012,753.346691 C341.43367,754.974582 341.491174,757.671708 339.871451,759.370891 C338.251729,761.070075 335.568136,761.127869 333.877478,759.499978 C309.198934,735.737641 291.788084,708.420981 281.67176,677.603999 L282.170149,787.551916 L282.142385,788.048926 C281.894277,790.168998 280.016069,791.821586 277.72816,791.83108 C275.264259,791.841219 273.258231,789.941895 273.247572,787.588781 L273.247572,787.588781 L272.729081,673.035929 C262.879885,705.691018 245.017222,734.505247 219.1729,759.416097 C217.483088,761.044874 214.799466,760.988488 213.178861,759.290154 C211.558256,757.591821 211.61436,754.894665 213.304171,753.265887 C247.840011,719.977449 267.440275,679.5955 272.188239,631.952093 C267.419494,643.683819 260.666737,654.008287 251.412337,664.532415 L249.234255,666.96967 L246.4678,670.02442 L244.160969,672.472087 L240.767713,675.867743 L235.656026,680.782913 L215.624454,699.706639 L212.197784,702.97562 L208.86763,706.191914 L205.63384,709.35541 L202.496259,712.465995 L199.454735,715.523559 L196.509113,718.52799 L193.659239,721.479177 L190.904961,724.377007 L188.246125,727.221371 L185.682577,730.012155 L183.214164,732.74925 L180.840732,735.432542 L178.562128,738.061921 L176.378197,740.637276 L174.288787,743.158494 L172.293744,745.625465 C171.644441,746.438735 171.010839,747.242945 170.392914,748.038077 L168.586145,750.396218 L166.873281,752.699777 L165.25417,754.948643 L163.728658,757.142704 L162.296592,759.281848 L160.957818,761.365965 L159.712182,763.394942 C159.512329,763.728504 159.316351,764.059763 159.124243,764.388719 L158.018028,766.334778 C150.952608,779.123903 150.070828,788.218497 155.167948,793.469938 C156.802867,795.154357 156.769591,797.851895 155.093625,799.495059 C153.417658,801.138222 150.733656,801.104779 149.098737,799.420361 C141.922487,792.026841 141.538892,781.555227 147.765538,767.873107 L148.723922,765.847911 C149.561862,764.141124 150.497979,762.386494 151.531941,760.58378 L152.819639,758.397428 C153.264513,757.660941 153.72502,756.916745 154.201141,756.164825 L155.676321,753.885877 C155.929983,753.502185 156.187544,753.116558 156.449,752.728995 L158.064457,750.380358 C158.341483,749.985039 158.622399,749.587781 158.907203,749.188579 L160.662651,746.770045 C160.962994,746.363066 161.267218,745.95414 161.575322,745.543266 L163.470476,743.054628 L165.458609,740.519138 L167.539593,737.936704 L169.713301,735.307234 L171.979607,732.630636 C172.365034,732.180604 172.754314,731.728604 173.147444,731.274635 L175.552407,728.527172 L178.04965,725.73235 C178.47354,725.262595 178.90127,724.790862 179.332837,724.317151 L181.968261,721.451118 L184.695647,718.537496 L187.514868,715.576193 L190.425797,712.567115 L193.428307,709.510172 L198.103508,704.834807 L201.334415,701.657795 L204.656458,698.432595 L208.06951,695.159114 L232.095097,672.427232 L236.525096,668.10726 L237.440873,667.183724 L239.574038,664.957785 L240.739011,663.695283 L243.770019,660.33792 C261.245993,640.929081 269.384068,622.957387 272.266053,593.978662 C272.26399,593.655205 272.298422,593.338608 272.365752,593.033258 L272.28175,574.272367 C262.154437,607.443391 243.733305,636.637419 217.052949,661.789859 C160.500356,715.103828 96.9057501,749.310697 26.3309624,764.350646 C24.040555,764.838747 21.7901146,763.368325 21.3044629,761.066367 C20.8188112,758.76441 22.2818548,756.50262 24.5722621,756.01452 C93.6019759,741.303836 155.808066,707.843835 211.252362,655.574693 C247.036913,621.839433 267.251596,580.714166 271.987825,532.022654 C272.007378,531.82163 272.040532,531.62524 272.08628,531.434315 L272.016135,515.390841 C258.867824,542.37774 234.147687,563.626381 198.074026,579.078681 C151.534574,599.014045 105.143774,594.183693 59.3739584,564.716123 C59.3087876,564.674165 59.2451434,564.630714 59.1830418,564.585843 C58.7373945,564.362611 58.323682,564.055881 57.9653935,563.666785 C56.3750998,561.939751 56.4789248,559.244024 58.197293,557.645711 L62.8022398,553.398155 L67.342025,549.282588 C68.0932305,548.60766 68.8417246,547.938231 69.5875089,547.274301 L74.029713,543.356721 L78.4069705,539.571133 L82.7193676,535.917537 C84.1460327,534.721671 85.5619021,533.547804 86.9669901,532.395936 L91.1499243,529.006329 C115.361866,509.618609 136.276395,496.968175 153.970363,491.055879 C161.453587,488.55542 170.288302,486.641622 180.480243,485.310877 L184.365852,484.839171 C187.068808,484.535022 189.861216,484.26925 192.743173,484.041795 C145.104395,471.499073 102.336045,447.380294 64.4975724,411.708734 C7.3635853,357.846667 -11.802101,285.583005 6.96072217,195.496954 C7.37177638,193.523357 9.10306468,192.109184 11.1093199,192.109184 L11.6675706,192.11067 C11.7773921,192.107089 11.8868761,192.10785 11.9957979,192.112844 L11.1093199,192.109184 C30.7225774,192.105374 49.4130721,194.151848 67.1745447,198.245662 C69.20244,181.477822 73.0926907,165.340034 78.617229,150.052086 L78.617229,150.052086 L78.5159034,150.014241 L81.420797,142.00852 L81.669139,142.098788 C113.084715,64.8060141 186.932878,11.1470588 272.106933,11.1470588 Z M269.710465,498.312045 L269.084611,498.760307 C212.86613,538.819833 146.242712,561.914451 76.0484108,564.725566 C115.474982,586.159394 154.924556,588.298785 194.749703,571.23952 C234.904987,554.038841 259.774447,529.760935 269.710465,498.312045 Z M281.442818,500.859096 L281.697494,501.586482 C292.294628,531.451109 316.810111,554.640763 355.560621,571.239702 C395.198992,588.21896 433.831118,586.080186 471.830227,564.739554 C402.751447,562.034845 337.118981,539.688389 281.442818,500.859096 Z M341.016802,491.725529 C334.22159,491.52395 326.991775,491.498687 319.32838,491.650381 L319.32838,491.650381 L314.155226,491.777733 L309.494178,491.936798 C302.757423,492.501548 295.934446,492.864233 289.025386,493.024807 L286.364781,493.202454 L285.43927,493.272347 C340.98045,532.248153 406.734532,554.375488 475.909259,556.350435 L472.221364,552.927529 L467.989981,549.080669 C465.889291,547.190635 463.811116,545.350694 461.755503,543.560843 L461.755503,543.560843 L457.674374,540.047926 C432.693106,518.796778 411.148778,505.1645 393.132642,499.144553 C385.607606,496.630123 376.520215,494.737387 365.877351,493.470674 L365.877351,493.470674 L362.05647,493.0496 C360.761321,492.917912 359.444655,492.794895 358.106481,492.680556 L358.106481,492.680556 L354.027453,492.363585 C351.265103,492.169638 348.416771,492.010434 345.482546,491.886029 L345.482546,491.886029 Z M218.078854,491.558894 L213.355635,491.614868 C208.696756,491.696991 204.230933,491.857541 199.958468,492.096326 L195.750467,492.361182 C193.678704,492.506643 191.655306,492.671646 189.680311,492.856169 L185.794868,493.251233 C174.332216,494.514461 164.612964,496.479812 156.645278,499.14215 C141.838534,504.089704 124.306708,514.267077 104.103201,529.67486 L100.159498,532.722324 L96.149158,535.900413 L92.0722678,539.209128 C91.387245,539.771466 90.6994528,540.339247 90.0088931,540.912471 L85.8323386,544.417127 L81.5894486,548.052412 C80.1641056,549.285945 78.7277211,550.541249 77.2803093,551.818326 L72.9050067,555.71487 L72.2204427,556.333416 C140.758849,554.264558 205.918298,532.410396 261.086317,493.988704 C251.418645,493.623633 241.91925,492.85992 232.587127,491.69727 L233.020063,491.705097 C227.846907,491.577747 222.866403,491.529076 218.078854,491.558894 Z M86.5603683,153.034432 C81.1511828,168.021044 77.3755506,183.85942 75.465202,200.326713 C119.486779,212.258153 157.602228,237.188932 189.712557,275.069105 C235.608086,329.211515 262.94742,399.322405 271.770089,485.288505 L271.878,485.298059 L271.178,330.843059 L271.153975,330.846279 L271.067417,330.184552 L270.94741,330.178725 L270.96187,329.847922 L270.96187,329.847922 L270.980348,329.515804 C269.84751,321.599228 266.798073,312.52483 261.827765,302.311806 L261.827765,302.311806 L260.269115,299.194406 C259.460615,297.618434 258.60835,296.01657 257.712306,294.388879 L257.712306,294.388879 L255.861839,291.099081 C255.543698,290.545049 255.220691,289.988152 254.892818,289.428392 L254.892818,289.428392 L252.867183,286.035508 L250.724737,282.574046 C250.357927,281.991427 249.986248,281.405956 249.609701,280.817635 L249.609701,280.817635 L247.291989,277.253526 L244.8574,273.621133 C244.441894,273.01005 244.021517,272.396127 243.596268,271.779366 L243.596268,271.779366 L240.986315,268.044767 L238.25942,264.242176 C237.795191,263.602751 237.326088,262.960499 236.852111,262.31542 L236.852111,262.31542 L233.949754,258.411063 L230.93039,254.439008 L227.793992,250.399372 L224.540535,246.292273 L221.169993,242.117829 C191.664953,205.910157 146.816962,176.193655 86.5603683,153.034432 Z M515.418066,365.985844 L514.524786,366.01193 C500.486915,366.468435 488.271651,368.462924 477.880801,371.974825 C473.881772,373.326417 469.295497,375.23722 464.126783,377.70639 L464.126783,377.70639 L460.955701,379.254889 L457.645065,380.937355 L454.195106,382.753748 L450.606054,384.704028 C449.996301,385.040229 449.380762,385.382008 448.759441,385.729362 L448.759441,385.729362 L444.962184,387.880395 L441.026411,390.165213 C440.358919,390.557163 439.685665,390.954685 439.006654,391.357779 L439.006654,391.357779 L434.863542,393.843199 L430.582491,396.462302 L426.163733,399.215049 C425.493391,399.636231 424.751195,399.846073 424.014318,399.862466 C391.222705,431.551628 350.808553,459.491414 302.788571,483.690364 L303.289743,483.664341 L308.835586,483.429297 L309.025928,483.424995 C375.713223,477.785617 433.556362,451.824625 482.701841,405.493583 C495.636416,393.299738 506.541998,380.133022 515.418066,365.985844 Z M37.6127249,366.031586 L37.6739899,366.132414 C46.5333695,380.223965 57.4082647,393.341846 70.2981593,405.493569 C116.983652,449.505501 171.257543,475.390196 233.239389,483.191405 L235.524604,483.245962 L240.942334,483.426894 C241.855964,483.46156 242.774931,483.498481 243.699238,483.537655 L246.669406,483.677039 C199.069427,460.612693 158.954793,432.664104 126.346997,399.827045 C125.797297,399.621542 125.291733,399.301103 124.867637,398.886134 L120.978271,396.462301 L116.69722,393.843198 L112.554108,391.357778 C111.875097,390.954684 111.201843,390.557162 110.534351,390.165213 L106.598578,387.880395 L102.801321,385.729362 C102.18,385.382007 101.564461,385.040229 100.954708,384.704027 L97.365656,382.753748 L93.9156967,380.937354 L90.6050607,379.254888 L87.4339787,377.706389 C86.4002361,377.212555 85.3897909,376.741056 84.4026818,376.291898 L81.5114006,375.011456 C78.6902043,373.798051 76.0793781,372.78578 73.6799607,371.974824 C63.4316684,368.511105 51.4086787,366.523447 37.6127249,366.031586 Z M143.091394,242.554811 L142.733249,243.331061 C132.164225,266.444957 125.634225,290.203029 123.134174,314.621592 C120.564089,339.724183 123.291623,365.770432 131.33751,392.785533 C166.223757,428.200155 210.060662,457.898877 262.87718,481.876267 L262.950851,482.527913 C253.908454,399.862714 227.331736,332.588011 183.258535,280.59538 L181.442412,278.474771 C169.489262,264.660372 156.707461,252.687932 143.091394,242.554811 Z M407.61994,244.283243 L406.448247,245.183543 C394.121632,254.740369 382.492846,265.836776 371.557588,278.474785 L371.557588,278.474785 L369.741465,280.595394 C325.679329,332.574973 298.764891,399.488168 289.031879,481.438927 L289.091364,480.953906 C340.874654,455.959093 383.960682,426.803221 418.36899,393.49679 C426.580361,366.227485 429.378702,339.944395 426.786072,314.621592 C424.320338,290.53821 417.93453,267.097311 407.61994,244.283243 Z M458.667957,155.927744 C404.442822,173.991308 361.379273,202.715177 329.381867,242.112444 L329.381867,242.112444 L326.065041,246.229192 L322.862271,250.271095 L319.773537,254.237988 L319.019169,255.217972 L319.019169,255.217972 L318.271926,256.193255 L315.354203,260.047326 L314.642582,260.999066 L314.642582,260.999066 L313.938084,261.94609 L311.191321,265.686973 L310.522435,266.610377 L310.522435,266.610377 L309.860671,267.52905 L307.284818,271.156375 L304.822877,274.70779 L302.474827,278.183132 L300.240644,281.582238 L299.699887,282.420083 L299.699887,282.420083 L299.166246,283.253151 L297.102822,286.537594 L295.15321,289.745392 L294.546817,290.766772 C291.344479,296.192683 288.650289,301.275329 286.463732,306.010927 L286.463732,306.010927 L285.253352,308.71654 L284.939321,309.449533 C282.535659,315.115395 280.914052,320.245029 280.073854,324.830986 L280.772382,479.100525 C290.828518,396.158344 318.32247,328.113762 363.287443,275.069119 C376.588139,259.378447 390.919175,245.909588 406.273435,234.665888 C406.597021,234.34894 406.977054,234.077315 407.407998,233.869339 L407.267619,233.942006 C426.294987,220.166972 446.884472,209.789625 469.022647,202.81628 C467.325384,186.517181 463.801089,170.815174 458.667957,155.927744 Z M535.854571,200.699012 L534.362423,200.734053 C489.130764,201.996021 449.241759,214.789016 414.606742,239.154721 C425.728018,263.30443 432.601794,288.174375 435.220242,313.749343 C437.460246,335.627973 435.856906,358.144106 430.42223,381.283152 C435.367588,376.03412 440.109902,370.687403 444.649147,365.243565 C482.274832,320.119728 512.680176,265.278914 535.854571,200.699012 Z M17.8804415,200.714188 L18.0945824,201.308142 C43.0673252,269.637082 74.3507237,326.323344 111.924103,371.384452 C114.281669,374.21184 116.689692,377.006994 119.148184,379.769912 C113.995204,357.161878 112.508873,335.150617 114.700004,313.749343 C117.376966,287.602855 124.501567,262.193253 136.063854,237.538426 C101.778979,214.090258 62.4124691,201.828483 17.8804415,200.714188 Z M540.57311,212.48107 L540.037625,213.904242 C517.040125,274.947198 487.413125,327.224372 451.147611,370.71698 C449.029146,373.257618 446.867874,375.777197 444.663799,378.275719 L446.744604,377.11324 C447.372801,376.767474 447.995321,376.427325 448.61217,376.092794 L448.61217,376.092794 L452.245252,374.15301 L455.742457,372.348003 L459.104018,370.677732 L462.330165,369.142156 C467.06794,366.939794 471.349471,365.191892 475.178266,363.897836 C488.026539,359.555375 503.233349,357.396069 520.801417,357.388924 L520.494605,357.389837 C543.012404,316.796645 549.709021,268.548787 540.57311,212.48107 Z M12.6626912,211.06419 L12.3724273,212.81654 C3.31715074,268.744941 10.0333837,316.883967 32.5098431,357.397857 C49.3408182,357.542778 63.9634494,359.700444 76.3824964,363.897835 C81.0621342,365.47946 86.4180828,367.73905 92.456744,370.677731 L95.8183046,372.348002 C97.532977,373.216819 99.2985161,374.136161 101.115052,375.106052 L104.816158,377.11324 L106.365,377.978059 L105.425639,376.857867 C68.4493785,332.512873 37.5346282,277.243031 12.6626912,211.06419 Z M116.091017,98.5141662 C105.410095,112.645371 96.4688008,128.280131 89.6187524,145.085816 C151.148299,168.739159 197.206257,199.261287 227.729539,236.718515 L227.729539,236.718515 L231.203894,241.021962 L234.558914,245.258716 C236.206586,247.360438 237.809497,249.437195 239.367632,251.489052 L239.367632,251.489052 L242.424199,255.559585 C242.923675,256.23248 243.418176,256.902613 243.907699,257.569987 L243.907699,257.569987 L246.785116,261.54114 L249.543066,265.446185 C258.842308,278.790946 266.012554,290.959966 271.048993,301.974859 L270.798075,246.674304 C266.885543,238.926878 260.526566,229.32108 252.751796,219.020931 L252.751796,219.020931 L249.924169,215.324469 C248.962816,214.083825 247.983227,212.83534 246.987129,211.580963 L246.987129,211.580963 L243.95103,207.802104 L240.826222,203.999584 L237.623059,200.185094 C236.543428,198.912901 235.452464,197.640662 234.351891,196.370326 L234.351891,196.370326 L231.023072,192.566972 L227.646953,188.786723 C227.0809,188.159257 226.513307,187.53324 225.944391,186.908917 L225.944391,186.908917 L222.516732,183.185248 C221.943383,182.568673 221.369141,181.954279 220.794223,181.342308 L220.794223,181.342308 L217.338317,177.701526 L213.876519,174.130615 L210.419182,170.641268 C209.843906,170.067157 209.269247,169.496931 208.695421,168.930835 L208.695421,168.930835 L205.264184,165.585755 C197.458238,158.067948 188.915414,150.427686 180.087651,143.040806 L180.087651,143.040806 L175.652116,139.370222 C168.969475,133.901238 162.168924,128.610017 155.441125,123.655115 L155.441125,123.655115 L150.968796,120.403412 C138.535882,111.482134 126.501042,103.845634 116.091017,98.5141662 Z M427.313301,97.456724 C422.355125,100.105104 417.12501,103.356917 411.622485,107.187638 C401.18535,114.453713 390.05816,123.571861 377.56426,134.860065 L377.56426,134.860065 L373.197964,138.841524 L367.515128,144.122531 L363.537442,147.875484 L345.056629,165.63937 L343.408307,167.237089 L342.263084,168.358036 C341.498755,169.109125 340.732817,169.867699 339.965782,170.63318 L339.965782,170.63318 L336.508445,174.122527 L333.046647,177.693438 L332.181714,178.59754 L332.181714,178.59754 L331.317311,179.505826 L327.868232,183.17716 L324.440573,186.900829 L323.588219,187.838553 L323.588219,187.838553 L322.738012,188.778635 L319.361892,192.558884 L318.524849,193.508013 L318.524849,193.508013 L317.690923,194.458403 L314.389636,198.268926 L311.151176,202.085016 L310.352591,203.038539 L310.352591,203.038539 L309.558742,203.991496 L306.433934,207.794016 L303.397835,211.572875 L302.336983,212.914507 C300.228229,215.592907 298.198115,218.241055 296.263619,220.839778 L296.263619,220.839778 L293.61952,224.443751 L292.88846,225.45996 C291.437546,227.485968 290.054345,229.472982 288.747551,231.411184 L288.747551,231.411184 L286.540385,234.751261 L286.044844,235.521412 C283.426755,239.612176 281.207363,243.433418 279.478727,246.881164 L279.719,246.406059 L279.960638,299.932124 C282.412357,294.869375 285.36217,289.498008 288.8096,283.814523 L289.380081,282.878586 L291.521412,279.441295 L293.780053,275.930198 L296.155981,272.345132 L298.649173,268.685932 L299.506292,267.449696 C300.082047,266.622786 300.666486,265.790368 301.259608,264.952435 L301.259608,264.952435 L303.987262,261.144477 L304.922526,259.858583 C305.550375,258.998555 306.186905,258.132996 306.832115,257.261896 L306.832115,257.261896 L309.794142,253.304527 L310.552955,252.30348 L310.552955,252.30348 L311.31909,251.297745 L314.456839,247.227888 L317.711707,243.082833 L321.083672,238.862418 L321.944957,237.79552 L321.944957,237.79552 L322.813559,236.7239 C355.810682,196.095717 400.147591,166.493226 455.733865,147.928116 C448.57854,129.620898 438.95957,112.655252 427.313301,97.456724 Z M387.198989,57.918183 C380.565169,62.6194384 374.699886,67.580583 367.681426,74.3207027 L367.681426,74.3207027 L364.806453,77.1167354 L361.780974,80.1243613 L348.881745,93.2635761 L346.274987,95.8808478 L343.811839,98.3170629 L336.275754,105.634216 L334.837075,107.045525 C331.973464,109.861466 329.192326,112.637346 326.49368,115.373104 L326.49368,115.373104 L321.855261,120.119711 L317.385282,124.784331 L315.932724,126.320972 C314.970591,127.34236 314.020938,128.357667 313.083764,129.36689 L313.083764,129.36689 L308.950728,133.867318 L308.066029,134.844216 C296.324176,147.843114 286.747551,159.785515 279.338498,170.663247 L279.375,170.609059 L279.643134,229.796944 C284.531121,222.270463 290.607834,213.985698 297.383789,205.48865 L298.080298,204.61755 L301.237122,200.725212 L302.039902,199.749281 L302.039902,199.749281 L302.847789,198.772572 L306.127189,194.86154 L309.475416,190.952426 L312.882156,187.056733 L316.337098,183.185964 L319.829928,179.351623 L320.707847,178.400078 L320.707847,178.400078 L321.587328,177.451708 L325.117654,173.693578 L326.00253,172.763781 L326.00253,172.763781 L326.888002,171.838239 L330.432621,168.182202 L333.973877,164.608607 L335.151767,163.437717 C335.936435,162.660698 336.719835,161.890922 337.501459,161.128957 L337.501459,161.128957 L353.492631,145.710033 L357.726396,141.675314 L363.681849,136.072398 L367.478456,132.555972 L368.414712,131.696307 L368.414712,131.696307 L369.347734,130.842692 C383.124974,118.260914 395.311174,108.18141 406.79824,100.184401 C412.041471,96.5341937 417.075792,93.3688477 421.914843,90.7055113 C411.637304,78.4022939 399.979778,67.3886425 387.198989,57.918183 Z M158.223187,57.0253114 C144.620042,66.9510488 132.262581,78.6132699 121.459427,91.7143352 C139.030527,100.942745 160.51422,116.00024 180.891843,132.669455 L180.891843,132.669455 L185.420849,136.416017 C194.433834,143.955746 203.151833,151.754237 211.128065,159.436045 C213.464081,161.685832 215.819526,164.009752 218.18065,166.392468 L218.18065,166.392468 L221.724877,170.008722 L225.26731,173.701666 L228.797636,177.459796 L232.305543,181.271609 L235.780718,185.125602 C238.660194,188.351642 241.494831,191.609636 244.257775,194.869628 L244.257775,194.869628 L247.537175,198.780659 C248.077433,199.432019 248.614394,200.082979 249.147842,200.733299 L249.147842,200.733299 L252.304666,204.625638 C255.934444,209.153279 259.371064,213.626119 262.540832,217.961956 L262.540832,217.961956 L265.190706,221.642919 C267.165141,224.430121 269.015799,227.148325 270.721907,229.77436 L270.448625,169.75661 C265.512886,162.587386 259.645805,154.960789 252.848041,146.87912 L252.848041,146.87912 L249.220574,142.625525 C243.65296,136.183352 237.516511,129.463248 230.811541,122.466314 L230.811541,122.466314 L226.25734,117.760692 C220.845851,112.22298 215.090484,106.51795 208.991389,100.646121 L208.991389,100.646121 L204.846193,96.6714257 L198.957924,91.0913948 L195.229854,87.6089453 L191.641944,84.3028694 L188.178944,81.1614386 L184.825604,78.1729244 L181.566671,75.3255984 L178.386896,72.6077321 L175.271028,70.0075971 C174.241362,69.1592041 173.219805,68.3284782 172.203815,67.5134647 L172.203815,67.5134647 L169.170007,65.1136066 L166.154353,62.7962942 L163.141602,60.5497991 C162.638871,60.1806331 162.135626,59.8139292 161.631549,59.4494429 L161.631549,59.4494429 L158.594557,57.2871829 Z M328.967621,28.2798432 L327.685719,29.5301168 L326.920105,30.2849046 C302.059425,54.8485526 286.098057,75.9669837 279.025612,93.4845142 L279.309342,156.146973 C290.404243,141.384761 304.909835,125.009126 322.830748,107.003918 L322.830748,107.003918 L327.79499,102.060849 L329.487257,100.395247 C330.621689,99.2818587 331.768628,98.1624966 332.928075,97.037157 L332.928075,97.037157 L337.899611,92.2193324 L340.315938,89.8292965 L342.878676,87.2561274 L354.216956,75.689839 L357.423378,72.4733194 L360.466834,69.4806284 L361.352307,68.6231697 C362.52519,67.4917329 363.667757,66.4071324 364.788128,65.3630149 L364.788128,65.3630149 L367.547514,62.8333843 L370.242611,60.4503734 L371.310572,59.5319089 C374.15238,57.1080374 376.952017,54.8819609 379.866428,52.7302502 C364.257284,42.2176453 347.147644,33.9287751 328.967621,28.2798432 L328.967621,28.2798432 Z M220.35817,26.7702309 C200.778324,32.261388 182.36555,40.7941854 165.641998,51.8664886 L165.641998,51.8664886 L168.101296,53.6458756 L171.194539,55.9507399 C172.224665,56.7299868 173.254701,57.5208546 174.287244,58.3253295 L174.287244,58.3253295 L177.394989,60.7815617 C178.435141,61.615237 179.480396,62.4645056 180.53335,63.3313537 L180.53335,63.3313537 L183.717903,65.9866227 C184.253377,66.4386194 184.791424,66.8955074 185.332369,67.3575352 L185.332369,67.3575352 L188.615418,70.1933645 L191.983601,73.1644638 L195.452495,76.2827504 L199.037676,79.5601414 L204.667563,84.8006178 L210.646716,90.4661137 L214.852816,94.4990949 C216.620132,96.2005566 218.359303,97.8885629 220.070331,99.563126 L220.070331,99.563126 L225.118992,104.546497 C243.78644,123.134316 258.872831,140.012822 270.383139,155.199351 L270.098292,92.3526913 C253.771678,65.4040834 237.185695,43.5454005 220.35817,26.7702309 Z M269.768104,19.6826203 C256.117845,19.8472748 242.77903,21.4514875 229.893481,24.3628263 C243.485117,38.4983106 256.859048,55.784102 270.025395,76.2197604 Z M278.692667,19.7804495 L278.942136,74.9434947 C287.801511,60.1918653 301.343209,43.7699972 319.563633,25.6192103 C306.392072,22.2538093 292.716948,20.2577524 278.692667,19.7804495 Z"/>
  </g>
</svg>
